# xmcd CD database file
#
# Track frame offsets:
#	150
#	29827
#	43560
#	80775
#	98815
#	131343
#	157428
#	177042
#	193249
#	217201
#
# Disc length: 3084 seconds
#
# Revision: 0
# Processed by: cddbd v1.5.2PL0 Copyright (c) Steve Scherf et al.
# Submitted via: CDex 1.70
#
DISCID=970c0a0a
DTITLE=Rony Verbiest - Rony Verbiest plays Dave Brubeck
DYEAR=2012
DGENRE=Jazz
TTITLE0=01 - Here Comes McBride
TTITLE1=02 - The Basie Band Is Back In Town
TTITLE2=03 - Ricuerdo a Dave
TTITLE3=04 - Broadway Bossa Nova
TTITLE4=05 - Take Five
TTITLE5=06 - All My Love
TTITLE6=07 - The Duke
TTITLE7=08 - Strange Meadowlark
TTITLE8=09 - In Your Own Sweet Way
TTITLE9=10 - Waltzing
EXTD=YEAR: 2012
EXTT0=
EXTT1=
EXTT2=
EXTT3=
EXTT4=
EXTT5=
EXTT6=
EXTT7=
EXTT8=
EXTT9=
PLAYORDER=
